<?xml version="1.0" encoding="utf-8"?>
<!-- Generator: Adobe Illustrator 22.1.0, SVG Export Plug-In . SVG Version: 6.00 Build 0)  -->
<svg version="1.1" xmlns="http://www.w3.org/2000/svg" xmlns:xlink="http://www.w3.org/1999/xlink" x="0px" y="0px"
	 viewBox="0 0 20 20" xml:space="preserve" width="20px" height="20px">
<style type="text/css">
	.st0{fill:#095552;}
</style>
<g>
	<path class="st0" d="M0.2,19.8C0.3,19.9,0.5,20,0.7,20s0.4-0.1,0.5-0.2L10,11l8.8,8.8c0.1,0.1,0.3,0.2,0.5,0.2
		c0.2,0,0.4-0.1,0.5-0.2c0.3-0.3,0.3-0.7,0-1L11,10l8.8-8.8c0.3-0.3,0.3-0.7,0-1c-0.3-0.3-0.7-0.3-1,0L10,9L1.2,0.2
		c-0.3-0.3-0.7-0.3-1,0s-0.3,0.7,0,1L9,10l-8.8,8.8C-0.1,19.1-0.1,19.5,0.2,19.8z"/>
</g>
</svg>
