<?xml version="1.0" encoding="utf-8"?>
<!-- Generator: Adobe Illustrator 22.1.0, SVG Export Plug-In . SVG Version: 6.00 Build 0)  -->
<svg version="1.1" id="Capa_1" xmlns="http://www.w3.org/2000/svg" xmlns:xlink="http://www.w3.org/1999/xlink" x="0px" y="0px"
	 viewBox="0 0 34.5 40" style="enable-background:new 0 0 34.5 40;" xml:space="preserve">
<style type="text/css">
	.st0{fill:#095552;}
</style>
<g>
	<g>
		<polygon class="st0" points="10.9,4.6 5.2,4.6 8.5,1.3 7.2,0 1.8,5.5 7.2,11 8.5,9.7 5.2,6.4 10.9,6.4 		"/>
	</g>
</g>
<g>
	<g>
		<polygon class="st0" points="29.1,0 27.8,1.3 31.1,4.6 25.4,4.6 25.4,6.4 31.1,6.4 27.8,9.7 29.1,11 34.5,5.5 		"/>
	</g>
</g>
<g>
	<g>
		<path class="st0" d="M32.3,22.5c-0.1-0.1-0.2-0.1-0.2-0.2c-1.2-0.7-2.5-1.1-3.9-1.1c-1.9,0-3.7,0.7-5.1,2.1l-1.3,1.3V7.3
			c0-2-1.6-3.6-3.6-3.6s-3.6,1.6-3.6,3.6v8c-0.7-0.8-1.7-1.3-2.8-1.3c-0.8,0-1.5,0.3-2.1,0.7l-7.8,4.5C0.7,19.8,0,20.9,0,22.3v6
			C0,34.7,5.3,40,11.8,40c3.1,0,6-1.2,8.1-3.3l0,0l0.2-0.2c0,0,0,0,0,0l12.2-12.2C32.8,23.8,32.8,23,32.3,22.5z M18.6,35.4
			c-1.9,1.8-4.3,2.8-6.8,2.8c-5.5,0-9.9-4.5-9.9-9.9v-6c0-0.6,0.3-1.2,0.9-1.6l8-4.6c0.2-0.2,0.6-0.3,1-0.3c0.7,0,1.2,0.4,1.4,0.7
			l1.6,2c0.2,0.3,0.6,0.4,1,0.3c0.4-0.1,0.6-0.5,0.6-0.9V7.3c0-1,0.8-1.8,1.8-1.8S20,6.3,20,7.3v18.1c0,0.8,0.5,1.4,1.2,1.7
			c0.3,0.1,0.6,0,0.8-0.2l2.4-2.4c1-1,2.4-1.6,3.8-1.6c0.8,0,1.6,0.2,2.3,0.5L18.6,35.4z"/>
	</g>
</g>
</svg>
