<?xml version="1.0" encoding="utf-8"?>
<!-- Generator: Adobe Illustrator 22.1.0, SVG Export Plug-In . SVG Version: 6.00 Build 0)  -->
<svg version="1.1" id="Capa_1" xmlns="http://www.w3.org/2000/svg" xmlns:xlink="http://www.w3.org/1999/xlink" x="0px" y="0px"
	 viewBox="0 0 32 32" style="enable-background:new 0 0 32 32;" xml:space="preserve" width="20px" height="20px">
<style type="text/css">
	.st0{fill:#333333;}
</style>
<g>
	<g>
		<path class="st0" d="M26.2,0H5.8C2.6,0,0,2.6,0,5.8v20.3C0,29.4,2.6,32,5.8,32h20.3c3.2,0,5.8-2.6,5.8-5.8V5.8
			C32,2.6,29.4,0,26.2,0z M30,26.2c0,2.1-1.7,3.8-3.8,3.8H5.8C3.7,30,2,28.3,2,26.2V5.8C2,3.7,3.7,2,5.8,2h20.3
			C28.3,2,30,3.7,30,5.8L30,26.2L30,26.2z"/>
		<path class="st0" d="M16,6.5c-2.7,0-5,2.2-5,5c0,0.6,0.5,1,1,1c0.6,0,1-0.5,1-1c0-1.6,1.3-2.9,2.9-2.9s2.9,1.3,2.9,2.9
			c0,0.9-0.7,1.6-1.8,2.5c-1,0.8-2.2,1.8-2.2,3.3v3.2c0,0.6,0.5,1,1,1c0.6,0,1-0.5,1-1v-3.2c0-0.6,0.7-1.1,1.4-1.7
			c1.1-0.9,2.5-2.1,2.5-4C21,8.7,18.7,6.5,16,6.5z"/>
		<path class="st0" d="M16,22.9c-0.7,0-1.3,0.6-1.3,1.3c0,0.7,0.6,1.3,1.3,1.3c0.7,0,1.3-0.6,1.3-1.3C17.3,23.5,16.7,22.9,16,22.9z"
			/>
	</g>
</g>
</svg>
