<?xml version="1.0" encoding="iso-8859-1"?>
<!-- Generator: Adobe Illustrator 21.0.0, SVG Export Plug-In . SVG Version: 6.00 Build 0)  -->
<svg xmlns="http://www.w3.org/2000/svg" xmlns:xlink="http://www.w3.org/1999/xlink" version="1.1" id="Capa_1" x="0px" y="0px" viewBox="0 0 511.311 511.311" style="enable-background:new 0 0 511.311 511.311;" xml:space="preserve" width="15" height="15">
<g>
	<path d="M176.125,109.595c0-16.673-13.564-30.237-30.237-30.237c-16.673,0-30.237,13.564-30.237,30.237   c0,16.673,13.564,30.237,30.237,30.237C162.561,139.832,176.125,126.268,176.125,109.595z M130.651,109.595   c0-8.402,6.835-15.237,15.237-15.237c8.402,0,15.237,6.835,15.237,15.237c0,8.402-6.835,15.237-15.237,15.237   C137.486,124.832,130.651,117.997,130.651,109.595z"/>
	<path d="M273.747,101.817c4.143,0,7.5-3.357,7.5-7.5c0-4.143-3.357-7.5-7.5-7.5h-23.253c-4.142,0-7.5,3.357-7.5,7.5   c0,4.143,3.358,7.5,7.5,7.5H273.747z"/>
	<path d="M424.547,101.817c4.143,0,7.5-3.357,7.5-7.5c0-4.143-3.357-7.5-7.5-7.5H311.244c-4.143,0-7.5,3.357-7.5,7.5   c0,4.143,3.357,7.5,7.5,7.5H424.547z"/>
	<path d="M449.261,424.941h-14.953v-21.131c27.593-24.816,46.966-62.729,56.12-109.937c7.074-36.483,5.661-65.388,5.597-66.601   c-0.209-3.983-3.5-7.106-7.489-7.106h-44.377c-4.143,0-7.5,3.357-7.5,7.5c0,4.143,3.357,7.5,7.5,7.5h36.993   c-0.094,25.152-4.463,110.869-57.311,157.887H305.668c-52.849-47.018-57.218-132.737-57.312-157.887h109.975v29.755h-1.98   c-9.173,0-17.977,3.889-24.153,10.669c-6.178,6.781-9.232,15.908-8.381,25.041l3.803,40.758   c1.85,19.824,18.169,34.798,38.033,34.989c0.06,0.001,0.118,0.009,0.178,0.009c0.022,0,0.043-0.003,0.065-0.003   c0.047,0,0.093,0.003,0.14,0.003c20.038,0,36.554-15.046,38.416-34.999l3.803-40.757c0.852-9.133-2.203-18.261-8.38-25.041   c-6.178-6.78-14.981-10.669-24.154-10.669h-2.39v-29.755h40.828c4.143,0,7.5-3.357,7.5-7.5c0-4.143-3.357-7.5-7.5-7.5h-40.828   v-36.71h45.775c12.119,0,21.978-9.859,21.978-21.979v-12.555h25.211c19.651,0,35.639-15.987,35.639-35.639   c0-53.19-43.273-96.464-96.464-96.464H190.37c-4.142,0-7.5,3.357-7.5,7.5c0,4.142,3.358,7.5,7.5,7.5H405.47   c44.919,0,81.464,36.545,81.464,81.464c0,11.38-9.259,20.639-20.639,20.639H263.802c-23.107,0-44.989,10.059-60.034,27.597   c-15.045,17.539-21.657,40.696-18.141,63.535l32.104,208.528c0.563,3.658,3.711,6.358,7.413,6.358h224.117   c23.391,0,42.85,17.159,46.453,39.551H141.188c-4.142,0-7.5,3.358-7.5,7.5c0,4.143,3.358,7.5,7.5,7.5h362.623   c4.143,0,7.5-3.357,7.5-7.5C511.311,452.777,483.476,424.941,449.261,424.941z M342.555,339.994l-3.803-40.757   c-0.468-5.014,1.143-9.824,4.533-13.546c3.391-3.722,8.03-5.771,13.065-5.771h1.98v80.168   C349.782,357.161,343.442,349.5,342.555,339.994z M375.72,279.92c5.035,0,9.675,2.05,13.065,5.771   c3.391,3.722,5.001,8.532,4.533,13.546l-3.803,40.756c-0.901,9.659-7.429,17.415-16.186,20.234V279.92H375.72z M426.085,148.922   v12.555c0,3.848-3.131,6.979-6.978,6.979H314.804c-3.848,0-6.979-3.131-6.979-6.979v-12.555H426.085z M200.453,222.771   c-2.849-18.507,2.509-37.272,14.701-51.485c12.191-14.212,29.923-22.363,48.648-22.363h29.023v12.555   c0,12.119,9.859,21.979,21.979,21.979h43.526v36.71H240.972c-3.989,0-7.281,3.123-7.49,7.106   c-0.064,1.213-1.477,30.117,5.598,66.601c9.173,47.301,28.603,85.272,56.283,110.085v20.984h-63.785L200.453,222.771z    M310.363,424.941v-16.889h108.945v16.889H310.363z"/>
	<path d="M111.188,479.491H15.597C19.2,457.1,38.659,439.941,62.05,439.941h4.755c3.701,0,6.849-2.699,7.413-6.358l34.14-221.465   c2.693-17.469-3.264-35.256-15.934-47.579l-37.16-36.147c-0.029-0.028-0.059-0.057-0.088-0.085   c-4.19-3.945-6.498-9.28-6.498-15.023c0-44.919,36.544-81.464,81.464-81.464h30.229c4.142,0,7.5-3.358,7.5-7.5   c0-4.143-3.358-7.5-7.5-7.5h-30.229c-53.191,0-96.464,43.273-96.464,96.464c0,9.755,4.07,19.19,11.167,25.898l37.121,36.109   c9.198,8.947,13.522,21.859,11.567,34.542l-33.163,215.13C26.928,425.857,0,453.338,0,486.991c0,4.143,3.358,7.5,7.5,7.5h103.688   c4.142,0,7.5-3.357,7.5-7.5C118.688,482.849,115.33,479.491,111.188,479.491z"/>
</g>















</svg>
