<?xml version="1.0" encoding="iso-8859-1"?>
<!-- Generator: Adobe Illustrator 21.0.0, SVG Export Plug-In . SVG Version: 6.00 Build 0)  -->
<svg xmlns="http://www.w3.org/2000/svg" xmlns:xlink="http://www.w3.org/1999/xlink" version="1.1" id="Capa_1" x="0px" y="0px" viewBox="0 0 511.311 511.311" style="enable-background:new 0 0 511.311 511.311;" xml:space="preserve" width="150" height="150">
<g>
	<path style="fill:#FFDB56;" d="M295.363,403.958v28.483c0,4.142,3.357,7.5,7.5,7.5h123.945c4.143,0,7.5-3.358,7.5-7.5v-28.483   H295.363z"/>
	<path style="fill:#E0E0E0;" d="M496.025,227.272c-0.209-3.983-3.5-7.106-7.489-7.106H240.972c-3.989,0-7.281,3.123-7.49,7.106   c-0.064,1.213-1.477,30.117,5.598,66.601c9.173,47.302,28.604,85.273,56.285,110.086h138.779   c27.681-24.813,47.112-62.784,56.285-110.086C497.503,257.389,496.089,228.485,496.025,227.272z"/>
	<path style="fill:#C4C4C4;" d="M496.025,227.272c-0.209-3.983-3.5-7.106-7.489-7.106h-33.607c3.989,0,7.28,3.123,7.489,7.106   c0.064,1.213,1.478,30.117-5.597,66.601c-9.173,47.302-28.604,85.273-56.285,110.086h33.607   c27.681-24.813,47.112-62.784,56.285-110.086C497.503,257.389,496.089,228.485,496.025,227.272z"/>
	<path style="fill:#FFC41F;" d="M295.363,414.505v17.936c0,4.142,3.357,7.5,7.5,7.5h123.945c4.143,0,7.5-3.358,7.5-7.5v-17.936   H295.363z"/>
	<path style="fill:#67676B;" d="M399.875,275.589c-6.178-6.78-14.981-10.669-24.154-10.669h-2.39v-88.965c0-4.143-3.357-7.5-7.5-7.5   c-4.143,0-7.5,3.357-7.5,7.5v88.965h-1.98c-9.173,0-17.977,3.889-24.153,10.669c-6.178,6.781-9.232,15.908-8.381,25.041   l3.803,40.758c1.85,19.824,18.169,34.798,38.033,34.989c0.06,0.001,0.118,0.009,0.178,0.009c0.022,0,0.043-0.003,0.065-0.003   c0.047,0,0.093,0.003,0.14,0.003c20.038,0,36.554-15.046,38.416-34.999l3.803-40.757   C409.106,291.497,406.051,282.369,399.875,275.589z M342.555,339.994l-3.803-40.757c-0.468-5.014,1.143-9.824,4.533-13.546   c3.391-3.722,8.03-5.771,13.065-5.771h1.98v80.168C349.782,357.161,343.442,349.5,342.555,339.994z M393.319,299.238l-3.803,40.756   c-0.901,9.659-7.429,17.415-16.186,20.234V279.92h2.39c5.035,0,9.675,2.05,13.065,5.771   C392.176,289.413,393.787,294.224,393.319,299.238z"/>
	<path style="fill:#FFDB56;" d="M433.585,133.922H300.326c-4.143,0-7.5,3.357-7.5,7.5v20.055c0,12.119,9.859,21.979,21.979,21.979   h104.302c12.119,0,21.978-9.859,21.978-21.979v-20.055C441.085,137.28,437.727,133.922,433.585,133.922z"/>
	<path style="fill:#FFC41F;" d="M433.585,133.922H300.326c-4.143,0-7.5,3.357-7.5,7.5v20.562h148.259v-20.562   C441.085,137.28,437.727,133.922,433.585,133.922z"/>
	<path style="fill:#E93234;" d="M449.261,424.941H231.578l-31.126-202.17c-2.849-18.507,2.509-37.272,14.701-51.485   c12.191-14.212,29.923-22.363,48.648-22.363h202.493c19.651,0,35.639-15.987,35.639-35.639c0-53.19-43.273-96.464-96.464-96.464   h-275.33c-53.191,0-96.464,43.273-96.464,96.464c0,9.757,4.071,19.193,11.171,25.902l37.118,36.105   c9.198,8.947,13.522,21.859,11.567,34.542l-33.163,215.13C26.928,425.857,0,453.338,0,486.991c0,4.143,3.358,7.5,7.5,7.5h496.311   c4.143,0,7.5-3.357,7.5-7.5C511.311,452.777,483.476,424.941,449.261,424.941z"/>
	<path style="fill:#FFDB56;" d="M145.888,79.358c-16.673,0-30.237,13.564-30.237,30.237c0,16.673,13.564,30.237,30.237,30.237   c16.673,0,30.237-13.564,30.237-30.237C176.125,92.922,162.561,79.358,145.888,79.358z"/>
	<path style="fill:#FFC41F;" d="M145.888,114.497c-12.151,0-22.644-7.208-27.446-17.569c-1.787,3.856-2.792,8.146-2.792,12.668   c0,16.673,13.564,30.237,30.237,30.237c16.673,0,30.237-13.564,30.237-30.237c0-4.522-1.005-8.812-2.792-12.668   C168.532,107.289,158.039,114.497,145.888,114.497z"/>
	<path style="fill:#E0E0E0;" d="M273.747,101.817h-23.253c-4.142,0-7.5-3.357-7.5-7.5c0-4.143,3.358-7.5,7.5-7.5h23.253   c4.143,0,7.5,3.357,7.5,7.5C281.247,98.459,277.889,101.817,273.747,101.817z"/>
	<path style="fill:#E0E0E0;" d="M424.547,101.817H311.244c-4.143,0-7.5-3.357-7.5-7.5c0-4.143,3.357-7.5,7.5-7.5h113.304   c4.143,0,7.5,3.357,7.5,7.5C432.047,98.459,428.69,101.817,424.547,101.817z"/>
	<g>
		<path style="fill:#D6252E;" d="M504.537,458.855c-0.239,0.023-0.481,0.037-0.726,0.037H7.5c-0.246,0-0.488-0.014-0.728-0.037    C2.452,467.307,0,476.866,0,486.991c0,4.143,3.358,7.5,7.5,7.5h496.311c4.143,0,7.5-3.357,7.5-7.5    C511.311,476.865,508.857,467.307,504.537,458.855z"/>
		<path style="fill:#D6252E;" d="M497.807,85.359c-4.873,17.681-20.384,28.072-31.512,28.072H315.669h-55.66    c-14.758,0-28.241,3.758-39.832,10.211c-27.4,17.177-40.725,53.145-25.787,85.853l6.063,13.276    c-2.849-18.507,2.509-37.272,14.701-51.485c12.191-14.212,29.923-22.363,48.648-22.363h14.468h188.025    c19.651,0,35.639-15.987,35.639-35.639C501.934,103.577,500.487,94.203,497.807,85.359z"/>
	</g>
</g>















</svg>
