<?xml version="1.0" encoding="iso-8859-1"?>
<!-- Generator: Adobe Illustrator 19.0.0, SVG Export Plug-In . SVG Version: 6.00 Build 0)  -->
<svg version="1.1" id="Layer_1" xmlns="http://www.w3.org/2000/svg" xmlns:xlink="http://www.w3.org/1999/xlink" x="0px" y="0px"
	 viewBox="0 0 512 512" style="enable-background:new 0 0 512 512;" xml:space="preserve" width="150" height="150">
<path style="fill:#E4AD40;" d="M289.047,153.752c24.266,6.151,47.182,11.96,68.094,3.301c10.506-4.351,23.104-11.485,23.462-20.795
	c0.421-10.885-14.79-23.779-25.2-29.063c-55.388-28.129-102.341-42.198-142.281-42.198c-39.206,0-71.649,13.544-98.732,40.623
	c-3.654,3.655-7.029,7.48-10.278,11.375c-0.057,0.072-0.068,0.164-0.128,0.235c-0.076,0.09-0.19,0.118-0.269,0.205
	c-54.899,66.282-51.378,164.967,10.675,227.023l3.021,3.059c12.223,12.469,49.374,50.708,73.695,49.3
	c5.163-0.233,9.185-2.317,12.648-6.559c8.589-10.518-4.038-42.09-16.248-72.628c-19.707-49.291-44.236-110.626-7.98-146.881
	C215.231,135.033,254.454,144.968,289.047,153.752z"/>
<path style="fill:#C4D455;" d="M413.95,297.05c-21.037-19.62-48.487-29.83-77.191-28.863h-0.004l-2.838,0.083
	c-29.801,0.75-48.095,4.867-54.371,12.244c-1.638,1.917-2.204,3.984-1.838,6.684c0.967,7.093,23.645,15.886,40.202,22.312
	c33.222,12.885,74.566,28.93,75.808,64.427c1.213,34.73-21.816,49.558-42.136,62.643c-13.36,8.61-25.979,16.736-30.834,29.705
	c-3.167,8.468-3.613,14.977-1.188,17.419c3.451,3.492,14.506,2.992,22.079,0.217c12.809-4.68,24.292-9.581,34.684-14.704
	c1.507-1.72,3.522-2.703,5.671-2.871c46.778-24.508,67.524-54.51,66.133-94.3C447.126,343.299,434.987,316.67,413.95,297.05z"/>
<g>
	<path style="fill:#314E55;" d="M284.855,170.297c25.892,6.568,52.671,13.335,78.812,2.525
		c21.987-9.093,33.422-21.178,33.993-35.897c0.825-21.27-22.229-38.706-34.53-44.949c-4.082-2.073-8.283-4.154-12.559-6.225
		l19.531-35.156c2.292-4.117,0.804-9.31-3.313-11.602c-4.126-2.309-9.318-0.8-11.606,3.317l-20.108,36.194
		c-18.664-8.398-38.713-16.156-59.405-21.797l17.62-31.716c2.292-4.117,0.804-9.31-3.313-11.602
		c-4.13-2.309-9.326-0.808-11.606,3.317l-19.924,35.863c-12.742-2.642-25.638-4.335-38.532-4.76l-6.758-38.538
		c-0.817-4.642-5.234-7.743-9.881-6.934c-4.642,0.817-7.747,5.242-6.93,9.885l6.282,35.82c-20.59,1.26-40.967,6.169-60.445,16.153
		l-5.838-33.286c-0.813-4.642-5.234-7.726-9.881-6.934c-4.642,0.817-7.747,5.242-6.93,9.885l6.954,39.656
		c-8.28,5.613-16.359,12.229-24.165,20.036c-2.032,2.032-3.798,4.224-5.715,6.325L69.313,76.932
		c-3.605-3.026-8.993-2.559-12.027,1.042c-3.03,3.609-2.567,8.993,1.042,12.027l27.337,22.981
		c-8.009,10.577-14.717,21.797-20.162,33.496l-36.205-13.22c-4.417-1.6-9.326,0.658-10.943,5.092
		c-1.617,4.426,0.663,9.326,5.092,10.943l35.562,12.985c-6.177,17.291-9.714,35.272-10.619,53.41L8.84,214.27
		c-4.597-0.158-8.66,3.517-8.835,8.218c-0.167,4.709,3.513,8.668,8.226,8.835l40.08,1.438c0.481,11.655,2.043,23.241,4.698,34.655
		l-39.135,17.382c-4.309,1.917-6.251,6.959-4.338,11.268c1.413,3.176,4.534,5.067,7.805,5.067c1.159,0,2.334-0.233,3.459-0.734
		l36.888-16.384c5.043,15.145,11.897,29.815,20.935,43.493L40.279,344.54c-4.309,1.917-6.251,6.959-4.338,11.268
		c1.413,3.176,4.534,5.067,7.805,5.067c1.159,0,2.334-0.233,3.459-0.734l40.156-17.836c0.546-0.243,0.934-0.66,1.401-0.995
		c4.213,5.248,8.694,10.348,13.559,15.214l2.905,2.942c4.999,5.098,10.291,10.331,15.767,15.45l-24.86,31.758
		c-2.905,3.709-2.25,9.076,1.463,11.977c1.559,1.225,3.413,1.817,5.255,1.817c2.534,0,5.043-1.125,6.726-3.276l24.212-30.929
		c18.491,15.476,38.277,27.645,56.309,27.645c0.596,0,1.192-0.017,1.779-0.042c9.939-0.45,18.615-4.884,25.096-12.81
		c14.957-18.311,1.717-51.425-13.619-89.772c-18.774-46.949-40.056-100.174-11.76-128.47
		C220.436,153.986,251.725,161.895,284.855,170.297z M187.506,317.628c12.21,30.538,24.837,62.11,16.248,72.628
		c-3.463,4.242-7.484,6.326-12.648,6.559c-24.32,1.409-61.472-36.831-73.695-49.299l-3.021-3.059
		c-62.052-62.056-65.574-160.741-10.675-227.023c0.079-0.086,0.193-0.115,0.269-0.205c0.06-0.071,0.071-0.163,0.128-0.235
		c3.249-3.895,6.623-7.72,10.278-11.375c27.084-27.079,59.526-40.623,98.732-40.623c39.94,0,86.893,14.069,142.281,42.198
		c10.41,5.284,25.621,18.178,25.2,29.063c-0.358,9.31-12.956,16.444-23.462,20.795c-20.912,8.66-43.828,2.85-68.094-3.301
		c-34.593-8.785-73.816-18.72-109.521,16.994C143.27,207.002,167.799,268.337,187.506,317.628z"/>
	<path style="fill:#314E55;" d="M503.769,364.836l-39.253-1.408c-1.756-17.836-7.12-34.843-15.938-50.061l33.875-14.341
		c4.342-1.842,6.372-6.843,4.534-11.185c-1.838-4.342-6.859-6.368-11.185-4.534l-37.117,15.714
		c-3.989-5.079-8.277-9.966-13.091-14.455c-7.454-6.948-15.67-12.764-24.346-17.639l22.717-24.317
		c3.217-3.442,3.034-8.843-0.413-12.06c-3.447-3.217-8.835-3.042-12.064,0.408l-26.397,28.257
		c-10.079-3.872-20.667-6.303-31.517-7.405l-0.607-36.788c-0.079-4.726-4.022-8.376-8.676-8.393
		c-4.713,0.075-8.468,3.959-8.393,8.676l0.591,35.834c-0.109,0.004-0.216-0.007-0.325-0.003l-2.675,0.075
		c-24.462,0.609-54.175,3.242-66.94,18.236c-4.784,5.618-6.772,12.552-5.751,20.053c2.321,17.069,24.854,25.804,50.937,35.922
		c30.034,11.652,64.077,24.862,64.923,49.116c0.875,25.029-15.432,35.531-34.314,47.691c-15.115,9.735-30.742,19.803-37.581,38.073
		c-5.905,15.769-5.001,27.696,2.684,35.431c5.597,5.642,13.627,7.476,21.349,7.476c7.285,0,14.29-1.634,18.707-3.25
		c11.162-4.08,23.096-8.916,34.934-14.656l30.147,22.766c1.538,1.167,3.346,1.725,5.134,1.725c2.588,0,5.143-1.167,6.818-3.392
		c2.842-3.759,2.096-9.11-1.667-11.952L399.102,476.5c14.982-8.714,28.998-19.336,40.305-32.313l30.428,22.973
		c1.538,1.167,3.346,1.725,5.134,1.725c2.588,0,5.143-1.167,6.818-3.392c2.842-3.759,2.096-9.11-1.667-11.952l-30.408-22.959
		c8.883-14.068,14.435-30.644,15.267-50.064l38.183,1.37c0.104,0.008,0.204,0.008,0.308,0.008c4.572,0,8.36-3.626,8.526-8.226
		C512.162,368.961,508.482,365.002,503.769,364.836z M381.994,466.345c-2.148,0.169-4.164,1.152-5.671,2.871
		c-10.392,5.123-21.875,10.024-34.684,14.704c-7.572,2.775-18.628,3.276-22.079-0.217c-2.425-2.442-1.979-8.951,1.188-17.419
		c4.855-12.969,17.474-21.095,30.834-29.705c20.32-13.085,43.349-27.913,42.136-62.643c-1.242-35.497-42.586-51.541-75.808-64.427
		c-16.557-6.426-39.235-15.219-40.202-22.312c-0.367-2.7,0.2-4.767,1.838-6.684c6.276-7.376,24.57-11.493,54.371-12.244l2.838-0.083
		h0.004c28.704-0.967,56.155,9.243,77.191,28.863c21.036,19.62,33.176,46.249,34.176,74.995
		C449.518,411.835,428.772,441.838,381.994,466.345z"/>
</g>
<g>
</g>
<g>
</g>
<g>
</g>
<g>
</g>
<g>
</g>
<g>
</g>
<g>
</g>
<g>
</g>
<g>
</g>
<g>
</g>
<g>
</g>
<g>
</g>
<g>
</g>
<g>
</g>
<g>
</g>
</svg>
