<?xml version="1.0" encoding="utf-8"?>
<!-- Generator: Adobe Illustrator 22.1.0, SVG Export Plug-In . SVG Version: 6.00 Build 0)  -->
<svg version="1.1" id="Capa_1" xmlns="http://www.w3.org/2000/svg" xmlns:xlink="http://www.w3.org/1999/xlink" x="0px" y="0px"
	 viewBox="0 0 18 18" style="enable-background:new 0 0 18 18;" xml:space="preserve" width="20px" height="20px">
<path d="M2.4,4.8h4.5c0.2,0,0.3-0.1,0.3-0.3S7.1,4.2,6.9,4.2H2.4c-0.2,0-0.3,0.1-0.3,0.3S2.2,4.8,2.4,4.8z"/>
<path d="M2.4,3.9h2.7c0.2,0,0.3-0.1,0.3-0.3c0-0.2-0.1-0.3-0.3-0.3H2.4c-0.2,0-0.3,0.1-0.3,0.3C2.1,3.8,2.2,3.9,2.4,3.9z"/>
<path d="M7.2,5.4c0-0.2-0.1-0.3-0.3-0.3H2.4c-0.2,0-0.3,0.1-0.3,0.3s0.1,0.3,0.3,0.3h4.5C7.1,5.7,7.2,5.6,7.2,5.4z"/>
<path d="M18,1.2H9.3V0.3C9.3,0.1,9.2,0,9,0S8.7,0.1,8.7,0.3v0.9H0v12.6h8.3l-3.7,3.7c-0.1,0.1-0.1,0.3,0,0.4C4.6,18,4.7,18,4.8,18
	S5,18,5,17.9l3.7-3.7v2.9c0,0.2,0.1,0.3,0.3,0.3s0.3-0.1,0.3-0.3v-2.9l3.7,3.7C13,18,13.1,18,13.2,18s0.2,0,0.2-0.1
	c0.1-0.1,0.1-0.3,0-0.4l-3.7-3.7H18V1.2z M17.4,13.2H0.6V1.8h16.8V13.2z"/>
</svg>
