<?xml version="1.0" encoding="utf-8"?>
<!-- Generator: Adobe Illustrator 22.1.0, SVG Export Plug-In . SVG Version: 6.00 Build 0)  -->
<svg version="1.1" id="Capa_1" xmlns="http://www.w3.org/2000/svg" xmlns:xlink="http://www.w3.org/1999/xlink" x="0px" y="0px"
	 viewBox="0 0 23.9 32" style="enable-background:new 0 0 23.9 32;" xml:space="preserve" width="20px" height="26.76px"> 
<style type="text/css">
	.st0{fill:#333333;}
</style>
<g>
	<g>
		<path class="st0" d="M5.3,12.4v-1.2c-1.2-1-2.1-2.6-2.1-4.3c0-3.1,2.6-5.7,5.7-5.7c3.1,0,5.7,2.6,5.7,5.7c0,1.3-0.5,2.7-1.3,3.6
			c0.4,0,0.7,0.1,1.1,0.2c0.8-1.1,1.2-2.5,1.2-3.9c0-3.7-3-6.7-6.7-6.7S2.2,3,2.2,6.7C2.2,9.1,3.4,11.1,5.3,12.4z"/>
		<path class="st0" d="M13.5,6.7c0-2.6-2.1-4.6-4.6-4.6S4.3,4.1,4.3,6.7c0,1.1,0.4,2.2,1,2.9V6.7c0-2,1.7-3.6,3.6-3.6
			s3.6,1.7,3.6,3.6v2.9C13.1,8.9,13.5,7.8,13.5,6.7z"/>
		<path class="st0" d="M21.3,14.5c-0.6,0-1.1,0.2-1.5,0.5l0,0c0-1.4-1.1-2.6-2.6-2.6c-0.6,0-1.2,0.2-1.8,0.6c-0.4-1-1.3-1.7-2.4-1.7
			c-0.6,0-1.1,0.2-1.5,0.5V6.7c0-1.4-1.1-2.6-2.6-2.6S6.3,5.3,6.3,6.7v9.2C4.3,14,2,12.6,0.5,14c-2.1,2.1,2.3,6.1,5.6,12.2
			c2.4,4.2,5.7,5.8,9,5.8c4.9,0,8.8-3.9,8.8-8.8V17C23.9,15.6,22.7,14.5,21.3,14.5z M22.8,19.3v3.9c0,4-3.5,7.7-7.7,7.7
			c-3.9,0-6.2-2.2-8.1-5.2c-4-6.8-6.9-9.9-5.8-11c1.1-1.1,3.9,1.3,6.1,3.6V6.7c0-0.8,0.7-1.5,1.5-1.5s1.5,0.7,1.5,1.5v10.8h1v-3.6
			c0-0.8,0.7-1.5,1.5-1.5c0.8,0,1.5,0.7,1.5,1.5v2.6h1V15c0-0.8,0.7-1.5,1.5-1.5c0.8,0,1.5,0.7,1.5,1.5v2.6h1V17
			c0-0.8,0.7-1.5,1.5-1.5c0.8,0,1.5,0.7,1.5,1.5L22.8,19.3L22.8,19.3z"/>
	</g>
</g>
</svg>
